<?xml version="1.0" encoding="utf-8"?><svg xmlns="http://www.w3.org/2000/svg" xmlns:xlink="http://www.w3.org/1999/xlink" width="1920" height="1080" preserveAspectRatio="xMidYMid" viewBox="0 0 1920 1080" style="z-index:1;margin-right:-2px;display:block;background-repeat-y:initial;background-repeat-x:initial;animation-play-state:paused" ><g transform=""><path id="path0" d="M 1701.8217169406096 474.4639410489917
c 0 37.2351149545674 -9.110719616543086 10.69519259333319 -19.805912209876276 10.69519259333319
S 1662.2098925208572 511.6990560035591 1662.2098925208572 474.4639410489917
s 9.110719616543086 -10.69519259333319 19.805912209876276 -10.69519259333319
S 1701.8217169406096 437.22882609442433 1701.8217169406096 474.4639410489917
z" fill="none" stroke="none"></path>
<circle cx="0" cy="0" r="4.421998298331374" fill="#e4812f" transform="translate(1670.8465576171875 491.7641296386719)"></circle>
<path id="path1" d="M 44.99893942045325 847.3858964854069
c 0 23.294972773269134 -5.699833763672235 6.691109200832624 -12.390942964504859 6.691109200832624
S 20.21705349144353 870.680869258676 20.21705349144353 847.3858964854069
s 5.699833763672235 -6.691109200832624 12.390942964504859 -6.691109200832624
S 44.99893942045325 824.0909237121377 44.99893942045325 847.3858964854069
z" fill="none" stroke="none"></path>
<circle cx="0" cy="0" r="5.983324274129624" fill="#0a0a0a" transform="translate(30.634231567382812 854.51904296875)"></circle>
<path id="path2" d="M 1287.1954648420433 595.0521847068966
c 0 34.325444180443945 -8.398778895215008 9.859436094382836 -18.258214989597843 9.859436094382836
S 1250.6790348628474 629.3776288873405 1250.6790348628474 595.0521847068966
s 8.398778895215008 -9.859436094382836 18.258214989597843 -9.859436094382836
S 1287.1954648420433 560.7267405264527 1287.1954648420433 595.0521847068966
z" fill="none" stroke="none"></path>
<circle cx="0" cy="0" r="6.233523652395425" fill="#e4812f" transform="translate(1284.8052978515625 577.3916625976562)"></circle>
<path id="path3" d="M 1155.7277888881667 604.6783258736864
c 0 31.226117132789323 -7.640432915469726 8.96920385729055 -16.609636772760275 8.96920385729055
S 1122.5085153426462 635.9044430064757 1122.5085153426462 604.6783258736864
s 7.640432915469726 -8.96920385729055 16.609636772760275 -8.96920385729055
S 1155.7277888881667 573.452208740897 1155.7277888881667 604.6783258736864
z" fill="none" stroke="none"></path>
<circle cx="0" cy="0" r="4.114007090999684" fill="#0a0a0a" transform="translate(1123.366455078125 591.79345703125)"></circle>
<path id="path4" d="M 783.9667069461345 667.6660304852408
c 0 26.999454472336147 -6.6062494985503335 7.755162454819958 -14.361411953370292 7.755162454819958
S 755.243883039394 694.665484957577 755.243883039394 667.6660304852408
s 6.6062494985503335 -7.755162454819958 14.361411953370292 -7.755162454819958
S 783.9667069461345 640.6665760129046 783.9667069461345 667.6660304852408
z" fill="none" stroke="none"></path>
<circle cx="0" cy="0" r="7.223688316127738" fill="#f9ae5c" transform="translate(767.24072265625 675.967041015625)"></circle>
<path id="path5" d="M 1796.650102292196 611.4802821357035
c 0 37.355120871155904 -9.140082766346657 10.729662377885207 -19.869745144231864 10.729662377885207
S 1756.910612003732 648.8354030068595 1756.910612003732 611.4802821357035
s 9.140082766346657 -10.729662377885207 19.869745144231864 -10.729662377885207
S 1796.650102292196 574.1251612645476 1796.650102292196 611.4802821357035
z" fill="none" stroke="none"></path>
<circle cx="0" cy="0" r="4.976918695230784" fill="#0a0a0a" transform="translate(1768.363037109375 596.5238037109375)"></circle>
<path id="path6" d="M 687.7047536866855 1048.9493872210894
c 0 36.14914626431642 -8.845003873183803 10.383265416346205 -19.228269289530008 10.383265416346205
S 649.2482151076256 1085.0985334854058 649.2482151076256 1048.9493872210894
s 8.845003873183803 -10.383265416346205 19.228269289530008 -10.383265416346205
S 687.7047536866855 1012.800240956773 687.7047536866855 1048.9493872210894
z" fill="none" stroke="none"></path>
<circle cx="0" cy="0" r="5.421105691928537" fill="#e4812f" transform="translate(656.3329467773438 1066.79345703125)"></circle>
<path id="path7" d="M 360.14406200494875 670.0171627224832
c 0 29.986685876157996 -7.337167820762063 8.613197006981553 -15.950364827743615 8.613197006981553
S 328.2433323494615 700.0038485986413 328.2433323494615 670.0171627224832
s 7.337167820762063 -8.613197006981553 15.950364827743615 -8.613197006981553
S 360.14406200494875 640.0304768463252 360.14406200494875 670.0171627224832
z" fill="none" stroke="none"></path>
<circle cx="0" cy="0" r="6.2013447567980755" fill="#f9ae5c" transform="translate(328.5527038574219 661.2880249023438)"></circle>
<path id="path8" d="M 1607.3056560228401 676.0905664381793
c 0 28.945045792744967 -7.082298438650363 8.314002514937384 -15.396300953587748 8.314002514937384
S 1576.5130541156645 705.0356122309242 1576.5130541156645 676.0905664381793
s 7.082298438650363 -8.314002514937384 15.396300953587748 -8.314002514937384
S 1607.3056560228401 647.1455206454343 1607.3056560228401 676.0905664381793
z" fill="none" stroke="none"></path>
<circle cx="0" cy="0" r="7.58439003059407" fill="#ffffff" transform="translate(1580.89990234375 660.9781494140625)"></circle>
<path id="path9" d="M 381.5318803703186 254.7701147636727
c 0 34.4016865977184 -8.417433954760886 9.881335512110606 -18.29876946687149 9.881335512110606
S 344.93434143657566 289.1718013613911 344.93434143657566 254.7701147636727
s 8.417433954760886 -9.881335512110606 18.29876946687149 -9.881335512110606
S 381.5318803703186 220.3684281659543 381.5318803703186 254.7701147636727
z" fill="none" stroke="none"></path>
<circle cx="0" cy="0" r="7.068204025445669" fill="#f9ae5c" transform="translate(373.2009582519531 270.45458984375)"></circle>
<path id="path10" d="M 308.33706335892873 677.45836821708
c 0 33.58430139147305 -8.217435446849787 9.646554654997578 -17.863990101847364 9.646554654997578
S 272.609083155234 711.0426696085531 272.609083155234 677.45836821708
s 8.217435446849787 -9.646554654997578 17.863990101847364 -9.646554654997578
S 308.33706335892873 643.8740668256069 308.33706335892873 677.45836821708
z" fill="none" stroke="none"></path>
<circle cx="0" cy="0" r="4.633238032220519" fill="#28292f" transform="translate(272.90362548828125 668.292236328125)"></circle>
<path id="path11" d="M 1562.7810945205636 157.64037869672563
c 0 23.002720210483094 -5.628325157884161 6.60716431577706 -12.235489473661222 6.60716431577706
S 1538.3101155732413 180.64309890720872 1538.3101155732413 157.64037869672563
s 5.628325157884161 -6.60716431577706 12.235489473661222 -6.60716431577706
S 1562.7810945205636 134.63765848624254 1562.7810945205636 157.64037869672563
z" fill="none" stroke="none"></path>
<circle cx="0" cy="0" r="6.04928926445727" fill="#ffffff" transform="translate(1555.0543212890625 166.2981719970703)"></circle>
<path id="path12" d="M 921.9426503857759 126.30493817685262
c 0 18.857680373273947 -4.614113282822348 5.416567766791453 -10.0306810496138 5.416567766791453
S 901.8812882865483 145.16261855012655 901.8812882865483 126.30493817685262
s 4.614113282822348 -5.416567766791453 10.0306810496138 -5.416567766791453
S 921.9426503857759 107.44725780357867 921.9426503857759 126.30493817685262
z" fill="none" stroke="none"></path>
<circle cx="0" cy="0" r="5.916870215335033" fill="#f9ae5c" transform="translate(901.89208984375 124.80643463134766)"></circle>
<path id="path13" d="M 684.8653640357599 513.6791487585415
c 0 20.441906455454504 -5.001743068887803 5.871611428694378 -10.87335449758218 5.871611428694378
S 663.1186550405954 534.121055213996 663.1186550405954 513.6791487585415
s 5.001743068887803 -5.871611428694378 10.87335449758218 -5.871611428694378
S 684.8653640357599 493.237242303087 684.8653640357599 513.6791487585415
z" fill="none" stroke="none"></path>
<circle cx="0" cy="0" r="5.874647054874895" fill="#f9ae5c" transform="translate(684.8380126953125 516.1102905273438)"></circle>
<path id="path14" d="M 1396.1050650256038 871.3678087466586
c 0 25.162761084477253 -6.15684579726571 7.22760158809453 -13.384447385360241 7.22760158809453
S 1369.3361702548832 896.5305698311358 1369.3361702548832 871.3678087466586
s 6.15684579726571 -7.22760158809453 13.384447385360241 -7.22760158809453
S 1396.1050650256038 846.2050476621814 1396.1050650256038 871.3678087466586
z" fill="none" stroke="none"></path>
<circle cx="0" cy="0" r="5.566331254524676" fill="#ffffff" transform="translate(1396.0902099609375 869.3765258789062)"></circle>
<path id="path15" d="M 1135.3073577429989 62.819613695124595
c 0 25.47245851411803 -6.232622827922497 7.3165572327785835 -13.54918006070108 7.3165572327785835
S 1108.2089976215968 88.29207220924263 1108.2089976215968 62.819613695124595
s 6.232622827922497 -7.3165572327785835 13.54918006070108 -7.3165572327785835
S 1135.3073577429989 37.34715518100656 1135.3073577429989 62.819613695124595
z" fill="none" stroke="none"></path>
<circle cx="0" cy="0" r="6.481664345295906" fill="#f9ae5c" transform="translate(1135.3035888671875 61.772499084472656)"></circle>
<path id="path16" d="M 827.4661554319907 585.583340583576
c 0 35.83446736793355 -8.768007973005016 10.292878924831976 -19.060886897836994 10.292878924831976
S 789.3443816363167 621.4178079515096 789.3443816363167 585.583340583576
s 8.768007973005016 -10.292878924831976 19.060886897836994 -10.292878924831976
S 827.4661554319907 549.7488732156424 827.4661554319907 585.583340583576
z" fill="none" stroke="none"></path>
<circle cx="0" cy="0" r="7.387620896005042" fill="#ffffff" transform="translate(805.9844360351562 574.8501586914062)"></circle>
<path id="path17" d="M 1800.8431742125238 132.15327124172035
c 0 35.30644012540472 -8.638809817918174 10.141211525382207 -18.780021343300383 10.141211525382207
S 1763.283131525923 167.45971136712507 1763.283131525923 132.15327124172035
s 8.638809817918174 -10.141211525382207 18.780021343300383 -10.141211525382207
S 1800.8431742125238 96.84683111631563 1800.8431742125238 132.15327124172035
z" fill="none" stroke="none"></path>
<circle cx="0" cy="0" r="7.249268354571148" fill="#f9ae5c" transform="translate(1785.73486328125 121.02313995361328)"></circle>
<path id="path18" d="M 1909.5928929042 908.7840214544825
c 0 34.73389347503401 -8.498718616231724 9.976756636445938 -18.47547525267766 9.976756636445938
S 1872.6419423988448 943.5179149295166 1872.6419423988448 908.7840214544825
s 8.498718616231724 -9.976756636445938 18.47547525267766 -9.976756636445938
S 1909.5928929042 874.0501279794485 1909.5928929042 908.7840214544825
z" fill="none" stroke="none"></path>
<circle cx="0" cy="0" r="7.221696709884634" fill="#28292f" transform="translate(1874.4539794921875 925.7543334960938)"></circle>
<path id="path19" d="M 1501.8796109893042 936.6412807884556
c 0 24.489055718670638 -5.99200299499388 7.03409047238412 -13.026093467377999 7.03409047238412
S 1475.8274240545484 961.1303365071262 1475.8274240545484 936.6412807884556
s 5.99200299499388 -7.03409047238412 13.026093467377999 -7.03409047238412
S 1501.8796109893042 912.1522250697849 1501.8796109893042 936.6412807884556
z" fill="none" stroke="none"></path>
<circle cx="0" cy="0" r="7.641504034473208" fill="#0a0a0a" transform="translate(1476.595458984375 947.1550903320312)"></circle></g></svg>