<?xml version="1.0" encoding="utf-8"?><svg xmlns="http://www.w3.org/2000/svg" xmlns:xlink="http://www.w3.org/1999/xlink" width="1920" height="1080" preserveAspectRatio="xMidYMid" viewBox="0 0 1920 1080" style="z-index:1;margin-right:-2px;display:block;background-repeat-y:initial;background-repeat-x:initial;background-color:rgb(241, 242, 243);animation-play-state:paused" ><g transform=""><defs><path id="path-npn07rnna1c-1" d="M-35 -35L35 -35L35 35L-35 35Z" fill="none" stroke="inherit" stroke-width="10.704225352112676" transform="scale(0.7100000000000001)" style="transform:matrix(0.71, 0, 0, 0.71, 0, 0);animation-play-state:paused" ></path>

  
<path id="path-npn07rnna1c-2" d="M0 -37A37 37 0 0 1 0 37A37 37 0 0 1 0 -37" fill="none" stroke="inherit" stroke-width="10.704225352112676" transform="scale(0.7100000000000001)" style="transform:matrix(0.71, 0, 0, 0.71, 0, 0);animation-play-state:paused" ></path>

  
<path id="path-npn07rnna1c-3" d="M0 -34.641L40 34.641L-40 34.641Z" fill="none" stroke="inherit" stroke-width="10.704225352112676" transform="scale(0.7100000000000001)" style="transform:matrix(0.71, 0, 0, 0.71, 0, 0);animation-play-state:paused" ></path></defs>
<path id="path0" d="M 149.31475445101236 466.0567491700941
c 0 44.288013324409185 -10.836428792142673 12.72102510381966 -23.557453895962333 12.72102510381966
S 102.19984665908768 510.3447624945033 102.19984665908768 466.0567491700941
s 10.836428792142673 -12.72102510381966 23.557453895962333 -12.72102510381966
S 149.31475445101236 421.76873584568494 149.31475445101236 466.0567491700941
z" fill="none" stroke="none"></path>


<use xlink:href="#path-npn07rnna1c-1" x="0" y="0" stroke="#0a0a0a" transform="translate(149.2272186279297 472.37847900390625)"></use>
<path id="path1" d="M 266.264190605681 957.0990784198466
c 0 65.28127338066749 -15.973077529312254 18.75100405614917 -34.72408158546143 18.75100405614917
S 196.81602743475815 1022.3803518005141 196.81602743475815 957.0990784198466
s 15.973077529312254 -18.75100405614917 34.72408158546143 -18.75100405614917
S 266.264190605681 891.8178050391791 266.264190605681 957.0990784198466
z" fill="none" stroke="none"></path>


<use xlink:href="#path-npn07rnna1c-1" x="0" y="0" stroke="#28292f" transform="translate(266.0434265136719 968.9794921875)"></use>
<path id="path2" d="M 294.24420138424887 500.42443542536387
c 0 34.12773093753578 -8.350402250673648 9.802646120356023 -18.15304837102967 9.802646120356023
S 257.9381046421895 534.5521663628997 257.9381046421895 500.42443542536387
s 8.350402250673648 -9.802646120356023 18.15304837102967 -9.802646120356023
S 294.24420138424887 466.2967044878281 294.24420138424887 500.42443542536387
z" fill="none" stroke="none"></path>


<use xlink:href="#path-npn07rnna1c-3" x="0" y="0" stroke="#0a0a0a" transform="translate(290.4267272949219 518.6287841796875)"></use>
<path id="path3" d="M 428.1947779909554 145.01663697079945
c 0 51.91295503857524 -12.702106020076918 14.911167936612037 -27.613273956688957 14.911167936612037
S 372.9682300775775 196.9295920093747 372.9682300775775 145.01663697079945
s 12.702106020076918 -14.911167936612037 27.613273956688957 -14.911167936612037
S 428.1947779909554 93.10368193222422 428.1947779909554 145.01663697079945
z" fill="none" stroke="none"></path>


<use xlink:href="#path-npn07rnna1c-2" x="0" y="0" stroke="#ffffff" transform="translate(426.79296875 166.32113647460938)"></use>
<path id="path4" d="M 482.7828947717287 492.1841851476194
c 0 37.53350662141799 -9.183730343538445 10.78090083806687 -19.964631181605313 10.78090083806687
S 442.853632408518 529.7176917690374 442.853632408518 492.1841851476194
s 9.183730343538445 -10.78090083806687 19.964631181605313 -10.78090083806687
S 482.7828947717287 454.65067852620143 482.7828947717287 492.1841851476194
z" fill="none" stroke="none"></path>


<use xlink:href="#path-npn07rnna1c-1" x="0" y="0" stroke="#ffffff" transform="translate(454.47320556640625 507.1170349121094)"></use>
<path id="path5" d="M 653.235538831941 563.9683538087695
c 0 42.28234563026453 -10.345680313788128 12.144929064012151 -22.49060937780028 12.144929064012151
S 608.2543200763404 606.2506994390341 608.2543200763404 563.9683538087695
s 10.345680313788128 -12.144929064012151 22.49060937780028 -12.144929064012151
S 653.235538831941 521.686008178505 653.235538831941 563.9683538087695
z" fill="none" stroke="none"></path>


<use xlink:href="#path-npn07rnna1c-3" x="0" y="0" stroke="#ffffff" transform="translate(621.10107421875 580.9951171875)"></use>
<path id="path6" d="M 779.1573136432546 862.3871427339577
c 0 48.60439539186832 -11.892564829925226 13.96083697426005 -25.853401804185275 13.96083697426005
S 727.450510034884 910.9915381258261 727.450510034884 862.3871427339577
s 11.892564829925226 -13.96083697426005 25.853401804185275 -13.96083697426005
S 779.1573136432546 813.7827473420894 779.1573136432546 862.3871427339577
z" fill="none" stroke="none"></path>


<use xlink:href="#path-npn07rnna1c-3" x="0" y="0" stroke="#28292f" transform="translate(750.6483154296875 876.7439575195312)"></use>
<path id="path7" d="M 868.7673344206106 157.44849807470692
c 0 36.57013489648812 -8.948011729991775 10.504187683033823 -19.452199413025596 10.504187683033823
S 829.8629355945594 194.01863297119505 829.8629355945594 157.44849807470692
s 8.948011729991775 -10.504187683033823 19.452199413025596 -10.504187683033823
S 868.7673344206106 120.87836317821879 868.7673344206106 157.44849807470692
z" fill="none" stroke="none"></path>


<use xlink:href="#path-npn07rnna1c-3" x="0" y="0" stroke="#0a0a0a" transform="translate(845.01318359375 169.24317932128906)"></use>
<path id="path8" d="M 965.8471339545821 264.00008890295146
c 0 45.34740785555134 -11.0956423476349 13.025319277658364 -24.120961625293265 13.025319277658364
S 917.6052107039956 309.3474967585028 917.6052107039956 264.00008890295146
s 11.0956423476349 -13.025319277658364 24.120961625293265 -13.025319277658364
S 965.8471339545821 218.6526810474001 965.8471339545821 264.00008890295146
z" fill="none" stroke="none"></path>


<use xlink:href="#path-npn07rnna1c-1" x="0" y="0" stroke="#ffffff" transform="translate(962.5091552734375 287.5121154785156)"></use>
<path id="path9" d="M 1011.9572602200318 658.767441239538
c 0 22.828293715529593 -5.585646334650858 6.557063088503181 -12.142709423154038 6.557063088503181
S 987.6718413737236 681.5957349550677 987.6718413737236 658.767441239538
s 5.585646334650858 -6.557063088503181 12.142709423154038 -6.557063088503181
S 1011.9572602200318 635.9391475240084 1011.9572602200318 658.767441239538
z" fill="none" stroke="none"></path>


<use xlink:href="#path-npn07rnna1c-1" x="0" y="0" stroke="#0a0a0a" transform="translate(1003.8198852539062 666.9983520507812)"></use>
<path id="path10" d="M 1182.487938290744 300.6332618832555
c 0 54.38925679929996 -13.308009642381903 15.622446101926583 -28.930455744308485 15.622446101926583
S 1124.627026802127 355.02251868255547 1124.627026802127 300.6332618832555
s 13.308009642381903 -15.622446101926583 28.930455744308485 -15.622446101926583
S 1182.487938290744 246.24400508395553 1182.487938290744 300.6332618832555
z" fill="none" stroke="none"></path>


<use xlink:href="#path-npn07rnna1c-2" x="0" y="0" stroke="#0a0a0a" transform="translate(1182.45654296875 304.9597473144531)"></use>
<path id="path11" d="M 1251.1250319606836 573.9360990810432
c 0 31.938241635725873 -7.814676144911648 9.173750257070198 -16.988426401981847 9.173750257070198
S 1217.14817915672 605.874340716769 1217.14817915672 573.9360990810432
s 7.814676144911648 -9.173750257070198 16.988426401981847 -9.173750257070198
S 1251.1250319606836 541.9978574453173 1251.1250319606836 573.9360990810432
z" fill="none" stroke="none"></path>


<use xlink:href="#path-npn07rnna1c-1" x="0" y="0" stroke="#ffffff" transform="translate(1251.025390625 579.541015625)"></use>
<path id="path12" d="M 1363.7192526380368 491.9562563440078
c 0 25.221665581421778 -6.171258599709583 7.244520964876469 -13.415779564586053 7.244520964876469
S 1336.8876935088647 517.1779219254296 1336.8876935088647 491.9562563440078
s 6.171258599709583 -7.244520964876469 13.415779564586053 -7.244520964876469
S 1363.7192526380368 466.734590762586 1363.7192526380368 491.9562563440078
z" fill="none" stroke="none"></path>


<use xlink:href="#path-npn07rnna1c-1" x="0" y="0" stroke="#28292f" transform="translate(1341.782470703125 504.4421691894531)"></use>
<path id="path13" d="M 1477.2003676543254 901.369353710468
c 0 42.75059076501445 -10.460250931865238 12.279425006972236 -22.739675938837472 12.279425006972236
S 1431.7210157766503 944.1199444754824 1431.7210157766503 901.369353710468
s 10.460250931865238 -12.279425006972236 22.739675938837472 -12.279425006972236
S 1477.2003676543254 858.6187629454536 1477.2003676543254 901.369353710468
z" fill="none" stroke="none"></path>


<use xlink:href="#path-npn07rnna1c-2" x="0" y="0" stroke="#28292f" transform="translate(1440.412109375 922.2323608398438)"></use>
<path id="path14" d="M 1584.6188419002863 1019.1289803904617
c 0 53.83643453572055 -13.17274462044226 15.463656728345264 -28.636401348787523 15.463656728345264
S 1527.3460392027112 1072.9654149261823 1527.3460392027112 1019.1289803904617
s 13.17274462044226 -15.463656728345264 28.636401348787523 -15.463656728345264
S 1584.6188419002863 965.2925458547412 1584.6188419002863 1019.1289803904617
z" fill="none" stroke="none"></path>


<use xlink:href="#path-npn07rnna1c-1" x="0" y="0" stroke="#ffffff" transform="translate(1573.27490234375 1045.086669921875)"></use>
<path id="path15" d="M 1611.620964563084 960.0797216948415
c 0 20.756973094687517 -5.078833842317158 5.962109293154925 -11.040943135472084 5.962109293154925
S 1589.5390782921397 980.836694789529 1589.5390782921397 960.0797216948415
s 5.078833842317158 -5.962109293154925 11.040943135472084 -5.962109293154925
S 1611.620964563084 939.322748600154 1611.620964563084 960.0797216948415
z" fill="none" stroke="none"></path>


<use xlink:href="#path-npn07rnna1c-3" x="0" y="0" stroke="#ffffff" transform="translate(1608.376708984375 970.8660888671875)"></use>
<path id="path16" d="M 1709.4955223360048 504.5435152997258
c 0 62.592117399556855 -15.315092555210718 17.978586912638672 -33.29367946784939 17.978586912638672
S 1642.908163400306 567.1356326992827 1642.908163400306 504.5435152997258
s 15.315092555210718 -17.978586912638672 33.29367946784939 -17.978586912638672
S 1709.4955223360048 441.95139790016896 1709.4955223360048 504.5435152997258
z" fill="none" stroke="none"></path>


<use xlink:href="#path-npn07rnna1c-3" x="0" y="0" stroke="#0a0a0a" transform="translate(1681.68505859375 523.7880859375)"></use>
<path id="path17" d="M 1834.0253357462834 795.19667968885
c 0 55.338907703648644 -13.540371033871475 15.895218170196951 -29.435589204068428 15.895218170196951
S 1775.1541573381464 850.5355873924987 1775.1541573381464 795.19667968885
s 13.540371033871475 -15.895218170196951 29.435589204068428 -15.895218170196951
S 1834.0253357462834 739.8577719852015 1834.0253357462834 795.19667968885
z" fill="none" stroke="none"></path>


<use xlink:href="#path-npn07rnna1c-1" x="0" y="0" stroke="#ffffff" transform="translate(1806.135986328125 811.2133178710938)"></use></g></svg>